<svg xmlns="http://www.w3.org/2000/svg" aria-hidden="true" overflow="hidden" style="position:absolute;width:0;height:0">
  <defs>
    <symbol id="icon-arrow-right" viewBox="0 0 32 32">
      <path stroke-width="1.454" d="M31.273 16c0 8.435-6.838 15.273-15.273 15.273S.727 24.435.727 16C.727 7.565 7.565.727 16 .727S31.273 7.565 31.273 16z"/>
      <path d="M24.514 16.514a.727.727 0 0 0 0-1.028l-4.628-4.628a.728.728 0 0 0-1.029 1.028L22.971 16l-4.114 4.114a.728.728 0 0 0 1.029 1.029l4.628-4.628zM8 16.727h16v-1.455H8v1.455z"/>
    </symbol>
    <symbol id="icon-arrow-left" viewBox="0 0 32 32">
      <path stroke-width="1.454" d="M.727 16c0 8.435 6.838 15.273 15.273 15.273S31.273 24.435 31.273 16C31.273 7.565 24.435.727 16 .727S.727 7.565.727 16z"/>
      <path d="M7.486 16.514a.727.727 0 0 1 0-1.028l4.628-4.628a.727.727 0 1 1 1.028 1.028L9.028 16l4.114 4.114a.728.728 0 0 1-1.028 1.029l-4.628-4.628zM24 16.727H8v-1.455h16v1.455z"/>
    </symbol>
    
  </defs>
</svg>
